<svg width="62" height="32" viewBox="0 0 62 32" fill="none" xmlns="http://www.w3.org/2000/svg">
<path d="M16.5758 17.9002C16.7458 18.2164 17.14 18.3349 17.4561 18.1648C17.7723 17.9948 17.8908 17.6007 17.7208 17.2845L16.5758 17.9002ZM14.4528 15.3263L14.6771 14.7162L14.6771 14.7162L14.4528 15.3263ZM11.2726 15.3851L11.0261 14.7837L11.0261 14.7837L11.2726 15.3851ZM8.92434 17.5924L9.50734 17.8798L8.92434 17.5924ZM8.58064 20.8457L9.21106 20.6874L8.58064 20.8457ZM13.5068 24.281L13.4224 23.6365L13.4224 23.6365L13.5068 24.281ZM16.3166 22.7473L16.8104 23.1699L16.8104 23.1699L16.3166 22.7473ZM17.4393 19.6855L16.7893 19.6855L16.7893 19.6857L17.4393 19.6855ZM17.4393 5.625L17.8966 5.16311C17.7102 4.97855 17.4312 4.92411 17.1891 5.0251C16.947 5.12608 16.7893 5.36269 16.7893 5.625H17.4393ZM19.8436 8.0056L20.3032 7.54597L20.3009 7.54371L19.8436 8.0056ZM21.7277 10.809C21.9816 11.0628 22.3931 11.0628 22.647 10.809C22.9008 10.5551 22.9008 10.1436 22.647 9.88973L21.7277 10.809ZM17.7208 17.2845C17.105 16.1395 15.8365 15.1424 14.6771 14.7162L14.2285 15.9364C15.1325 16.2687 16.1308 17.0727 16.5758 17.9002L17.7208 17.2845ZM14.6771 14.7162C13.4928 14.2809 12.1941 14.305 11.0261 14.7837L11.5192 15.9866C12.3867 15.631 13.3495 15.6132 14.2285 15.9364L14.6771 14.7162ZM11.0261 14.7837C9.85861 15.2623 8.90557 16.1604 8.34134 17.305L9.50734 17.8798C9.93429 17.0138 10.6511 16.3424 11.5192 15.9866L11.0261 14.7837ZM8.34134 17.305C7.77729 18.4491 7.63874 19.7639 7.95022 21.0041L9.21106 20.6874C8.97436 19.7449 9.08021 18.7462 9.50734 17.8798L8.34134 17.305ZM7.95022 21.0041C8.26175 22.2445 9.00341 23.3299 10.0414 24.0537L10.785 22.9874C10.0092 22.4464 9.44771 21.6297 9.21106 20.6874L7.95022 21.0041ZM10.0414 24.0537C11.0799 24.7779 12.3422 25.0891 13.5912 24.9255L13.4224 23.6365C12.4978 23.7576 11.5603 23.528 10.785 22.9874L10.0414 24.0537ZM13.5912 24.9255C14.84 24.7619 15.9839 24.1358 16.8104 23.1699L15.8227 22.3247C15.2013 23.0509 14.3472 23.5153 13.4224 23.6365L13.5912 24.9255ZM16.8104 23.1699C17.6366 22.2045 18.0898 20.9654 18.0893 19.6852L16.7893 19.6857C16.7897 20.6599 16.4445 21.5981 15.8227 22.3247L16.8104 23.1699ZM18.0893 19.6855V5.625H16.7893V19.6855H18.0893ZM16.982 6.08689L19.3863 8.46749L20.3009 7.54371L17.8966 5.16311L16.982 6.08689ZM19.384 8.46522L21.7277 10.809L22.647 9.88973L20.3032 7.54598L19.384 8.46522Z" fill="black"/>
<mask id="path-2-outside-1_104:1057" maskUnits="userSpaceOnUse" x="38" y="5.82898" width="16" height="20" fill="black">
<rect fill="white" x="38" y="5.82898" width="16" height="20"/>
<path fill-rule="evenodd" clip-rule="evenodd" d="M49.2289 13.7597C49.4524 14.5703 49.0845 15.6728 48.0711 17.2288C47.0522 18.7928 46.1992 19.5818 45.3866 19.7114C44.6756 19.823 44.1625 19.4043 43.7818 19.0935L43.679 19.0072C43.3063 18.6481 42.7269 18.6513 42.3594 19.014L41.8259 19.553C41.1897 20.1917 40.2979 21.0938 40.1011 21.2994L40.0412 21.3626C39.7268 21.6985 39.5157 21.9688 39.6645 22.3935C39.8504 22.861 41.2257 24.4458 43.2891 24.0019C45.2874 23.5716 47.6257 21.4833 49.7051 18.2725C51.7762 15.0749 52.7152 12.0865 52.2817 10.073C51.845 8.04591 49.8979 7.43087 49.3564 7.43087C49.346 7.43087 49.3364 7.43087 49.3272 7.43167C49.282 7.43766 49.2377 7.44726 49.1917 7.46086C48.8498 7.53444 48.713 7.79438 48.529 8.21187L48.4958 8.29345C48.4075 8.5098 48.0823 9.35918 47.7952 10.109L47.6053 10.6045C47.5589 10.7268 47.5153 10.8384 47.4773 10.936C47.4149 11.0967 47.3653 11.2235 47.3433 11.2935C47.169 11.7714 47.4005 12.2976 47.8736 12.4928L47.9912 12.5492C48.3795 12.7295 49.0297 13.0315 49.2289 13.7597M39.6045 20.9318L39.6629 20.8719C39.8633 20.6595 40.7798 19.7357 41.4053 19.1127L41.65 18.8652C41.7844 18.7296 41.8864 18.6264 41.9364 18.574C42.5222 17.993 43.4624 17.9694 44.075 18.5192L44.1866 18.6096C44.5169 18.8804 44.8592 19.1599 45.2959 19.0907C45.9142 18.9963 46.6756 18.2533 47.5585 16.8825C48.4419 15.5108 48.805 14.5123 48.6379 13.914C48.5207 13.4877 48.1256 13.2914 47.7365 13.0982L47.6169 13.0378C46.8615 12.7051 46.496 11.8385 46.7843 11.0639C46.8239 10.9655 46.9243 10.7056 47.0495 10.3769L47.1694 10.0634C47.4714 9.27597 47.8469 8.29581 47.9456 8.06307L47.9764 7.98469C48.1396 7.57599 48.4123 6.89136 49.2905 6.83138C49.3117 6.82978 49.3349 6.82898 49.3601 6.82898C50.0655 6.82898 52.3645 7.52001 52.886 9.943C53.3511 12.1013 52.3793 15.2641 50.2211 18.6208C48.0768 21.9556 45.5974 24.1374 43.4192 24.6065C43.1249 24.6697 42.8433 24.6981 42.5742 24.6981C40.5659 24.6981 39.2822 23.1121 39.0947 22.605C38.7875 21.7792 39.2986 21.249 39.6045 20.9318"/>
</mask>
<path fill-rule="evenodd" clip-rule="evenodd" d="M49.2289 13.7597C49.4524 14.5703 49.0845 15.6728 48.0711 17.2288C47.0522 18.7928 46.1992 19.5818 45.3866 19.7114C44.6756 19.823 44.1625 19.4043 43.7818 19.0935L43.679 19.0072C43.3063 18.6481 42.7269 18.6513 42.3594 19.014L41.8259 19.553C41.1897 20.1917 40.2979 21.0938 40.1011 21.2994L40.0412 21.3626C39.7268 21.6985 39.5157 21.9688 39.6645 22.3935C39.8504 22.861 41.2257 24.4458 43.2891 24.0019C45.2874 23.5716 47.6257 21.4833 49.7051 18.2725C51.7762 15.0749 52.7152 12.0865 52.2817 10.073C51.845 8.04591 49.8979 7.43087 49.3564 7.43087C49.346 7.43087 49.3364 7.43087 49.3272 7.43167C49.282 7.43766 49.2377 7.44726 49.1917 7.46086C48.8498 7.53444 48.713 7.79438 48.529 8.21187L48.4958 8.29345C48.4075 8.5098 48.0823 9.35918 47.7952 10.109L47.6053 10.6045C47.5589 10.7268 47.5153 10.8384 47.4773 10.936C47.4149 11.0967 47.3653 11.2235 47.3433 11.2935C47.169 11.7714 47.4005 12.2976 47.8736 12.4928L47.9912 12.5492C48.3795 12.7295 49.0297 13.0315 49.2289 13.7597M39.6045 20.9318L39.6629 20.8719C39.8633 20.6595 40.7798 19.7357 41.4053 19.1127L41.65 18.8652C41.7844 18.7296 41.8864 18.6264 41.9364 18.574C42.5222 17.993 43.4624 17.9694 44.075 18.5192L44.1866 18.6096C44.5169 18.8804 44.8592 19.1599 45.2959 19.0907C45.9142 18.9963 46.6756 18.2533 47.5585 16.8825C48.4419 15.5108 48.805 14.5123 48.6379 13.914C48.5207 13.4877 48.1256 13.2914 47.7365 13.0982L47.6169 13.0378C46.8615 12.7051 46.496 11.8385 46.7843 11.0639C46.8239 10.9655 46.9243 10.7056 47.0495 10.3769L47.1694 10.0634C47.4714 9.27597 47.8469 8.29581 47.9456 8.06307L47.9764 7.98469C48.1396 7.57599 48.4123 6.89136 49.2905 6.83138C49.3117 6.82978 49.3349 6.82898 49.3601 6.82898C50.0655 6.82898 52.3645 7.52001 52.886 9.943C53.3511 12.1013 52.3793 15.2641 50.2211 18.6208C48.0768 21.9556 45.5974 24.1374 43.4192 24.6065C43.1249 24.6697 42.8433 24.6981 42.5742 24.6981C40.5659 24.6981 39.2822 23.1121 39.0947 22.605C38.7875 21.7792 39.2986 21.249 39.6045 20.9318" fill="black"/>
<path d="M48.0711 17.2288L48.3225 17.3925L48.3225 17.3926L48.0711 17.2288ZM45.3866 19.7114L45.4339 20.0076L45.4331 20.0078L45.3866 19.7114ZM43.7818 19.0935L43.5921 19.326L43.5888 19.3232L43.7818 19.0935ZM43.679 19.0072L43.486 19.2368L43.4782 19.2303L43.4709 19.2232L43.679 19.0072ZM42.3594 19.014L42.1461 18.8029L42.1486 18.8004L42.3594 19.014ZM41.8259 19.553L42.0391 19.764L42.0384 19.7648L41.8259 19.553ZM40.1011 21.2994L39.8836 21.0928L39.8844 21.0919L40.1011 21.2994ZM40.0412 21.3626L39.8221 21.1576L39.8236 21.156L40.0412 21.3626ZM39.6645 22.3935L39.3855 22.5045L39.3813 22.4927L39.6645 22.3935ZM43.2891 24.0019L43.3523 24.2952L43.3522 24.2952L43.2891 24.0019ZM49.7051 18.2725L49.4533 18.1095L49.4533 18.1095L49.7051 18.2725ZM52.2817 10.073L52.575 10.0098L52.575 10.0099L52.2817 10.073ZM49.3272 7.43167L49.2877 7.13397L49.3012 7.13279L49.3272 7.43167ZM49.1917 7.46086L49.2767 7.74855L49.2659 7.75176L49.2548 7.75414L49.1917 7.46086ZM48.529 8.21187L48.251 8.09877L48.2545 8.09091L48.529 8.21187ZM48.4958 8.29345L48.7737 8.40651L48.7736 8.4069L48.4958 8.29345ZM47.7952 10.109L48.0754 10.2163L48.0753 10.2164L47.7952 10.109ZM47.6053 10.6045L47.3247 10.4981L47.3251 10.4971L47.6053 10.6045ZM47.4773 10.936L47.1976 10.8275L47.1977 10.8271L47.4773 10.936ZM47.3433 11.2935L47.6298 11.3835L47.6252 11.3963L47.3433 11.2935ZM47.8736 12.4928L47.988 12.2155L47.9958 12.2187L48.0033 12.2223L47.8736 12.4928ZM47.9912 12.5492L47.8648 12.8213L47.8614 12.8197L47.9912 12.5492ZM39.6629 20.8719L39.8812 21.0778L39.8779 21.0811L39.6629 20.8719ZM41.4053 19.1127L41.6186 19.3236L41.617 19.3252L41.4053 19.1127ZM41.65 18.8652L41.4367 18.6542L41.437 18.654L41.65 18.8652ZM41.9364 18.574L41.7192 18.3669L41.7251 18.361L41.9364 18.574ZM44.075 18.5192L43.8862 18.7524L43.8803 18.7476L43.8746 18.7425L44.075 18.5192ZM44.1866 18.6096L44.3754 18.3765L44.3768 18.3776L44.1866 18.6096ZM45.2959 19.0907L45.249 18.7944L45.2506 18.7941L45.2959 19.0907ZM47.5585 16.8825L47.8108 17.0449L47.8108 17.0449L47.5585 16.8825ZM48.6379 13.914L48.3489 13.9947L48.3486 13.9935L48.6379 13.914ZM47.7365 13.0982L47.6031 13.3669L47.6013 13.366L47.7365 13.0982ZM47.6169 13.0378L47.7379 12.7633L47.7451 12.7665L47.7522 12.77L47.6169 13.0378ZM46.7843 11.0639L46.5031 10.9592L46.506 10.9519L46.7843 11.0639ZM47.0495 10.3769L46.7691 10.2701L46.7693 10.2697L47.0495 10.3769ZM47.1694 10.0634L46.8893 9.95615L46.8893 9.95596L47.1694 10.0634ZM47.9456 8.06307L48.225 8.17281L48.2218 8.18027L47.9456 8.06307ZM47.9764 7.98469L47.6972 7.87499L47.6978 7.87346L47.9764 7.98469ZM49.2905 6.83138L49.3131 7.13054L49.311 7.13068L49.2905 6.83138ZM52.886 9.943L52.5927 10.0062L52.5927 10.0061L52.886 9.943ZM50.2211 18.6208L50.4734 18.7831L50.4734 18.7831L50.2211 18.6208ZM43.4192 24.6065L43.4823 24.8998L43.4822 24.8998L43.4192 24.6065ZM39.0947 22.605L39.3759 22.5004L39.376 22.501L39.0947 22.605ZM49.5181 13.6799C49.6509 14.1616 49.6006 14.7039 49.3984 15.3097C49.1964 15.915 48.8362 16.6038 48.3225 17.3925L47.8198 17.0651C48.3194 16.2978 48.6499 15.6573 48.8293 15.1197C49.0085 14.5826 49.0304 14.1683 48.9397 13.8394L49.5181 13.6799ZM48.3225 17.3926C47.8063 18.1848 47.3228 18.7958 46.8552 19.2283C46.3877 19.6606 45.9191 19.9303 45.4339 20.0076L45.3394 19.4151C45.6667 19.3629 46.0309 19.1733 46.4478 18.7878C46.8645 18.4024 47.317 17.8368 47.8198 17.065L48.3225 17.3926ZM45.4331 20.0078C44.5734 20.1427 43.9608 19.6268 43.5921 19.326L43.9715 18.8611C44.3643 19.1817 44.7778 19.5032 45.3401 19.415L45.4331 20.0078ZM43.5888 19.3232L43.486 19.2368L43.8721 18.7775L43.9748 18.8639L43.5888 19.3232ZM43.4709 19.2232C43.2151 18.9767 42.8215 18.9794 42.5701 19.2275L42.1486 18.8004C42.6323 18.3231 43.3976 18.3194 43.8872 18.7911L43.4709 19.2232ZM42.5726 19.225L42.0391 19.764L41.6127 19.342L42.1461 18.8029L42.5726 19.225ZM42.0384 19.7648C41.4015 20.4041 40.5121 21.3039 40.3179 21.5068L39.8844 21.0919C40.0837 20.8838 40.9778 19.9792 41.6134 19.3413L42.0384 19.7648ZM40.3187 21.5059L40.2587 21.5691L39.8236 21.156L39.8836 21.0928L40.3187 21.5059ZM40.2602 21.5675C40.1007 21.738 40.003 21.8566 39.9525 21.9683C39.9111 22.06 39.8984 22.154 39.9476 22.2943L39.3813 22.4927C39.2817 22.2083 39.3002 21.9548 39.4058 21.7212C39.5023 21.5076 39.6673 21.3231 39.8221 21.1576L40.2602 21.5675ZM39.9432 22.2826C39.971 22.3524 40.0657 22.5085 40.2417 22.7034C40.4127 22.8927 40.6463 23.1028 40.9342 23.2866C41.5078 23.6529 42.2875 23.9105 43.2261 23.7086L43.3522 24.2952C42.2273 24.5372 41.2877 24.2243 40.6113 23.7923C40.2741 23.577 40.0001 23.331 39.7965 23.1056C39.5978 22.8857 39.4509 22.6683 39.3857 22.5044L39.9432 22.2826ZM43.226 23.7086C44.1555 23.5085 45.1939 22.9143 46.2669 21.9562C47.3368 21.0007 48.4245 19.698 49.4533 18.1095L49.9569 18.4356C48.9063 20.0579 47.7851 21.4047 46.6665 22.4037C45.5509 23.3999 44.4211 24.0651 43.3523 24.2952L43.226 23.7086ZM49.4533 18.1095C50.4777 16.5279 51.2169 15.0059 51.6464 13.6388C52.0771 12.2681 52.1903 11.0737 51.9884 10.1361L52.575 10.0099C52.8066 11.0858 52.667 12.3924 52.2188 13.8187C51.7695 15.2486 51.0036 16.8196 49.9569 18.4356L49.4533 18.1095ZM51.9884 10.1362C51.7898 9.21404 51.2502 8.61456 50.6916 8.24118C50.121 7.85972 49.5559 7.73087 49.3564 7.73087V7.13087C49.6984 7.13087 50.3776 7.30953 51.0251 7.74237C51.6846 8.18329 52.3369 8.90488 52.575 10.0098L51.9884 10.1362ZM49.3564 7.73087C49.3506 7.73087 49.3488 7.73088 49.3476 7.7309C49.3467 7.73092 49.3491 7.7309 49.3532 7.73054L49.3012 7.13279C49.3258 7.13066 49.3488 7.13087 49.3564 7.13087V7.73087ZM49.3667 7.72906C49.338 7.73287 49.3088 7.73906 49.2767 7.74855L49.1066 7.17317C49.1665 7.15546 49.2261 7.14246 49.2878 7.13428L49.3667 7.72906ZM49.2548 7.75414C49.0814 7.79145 48.9963 7.89549 48.8036 8.33283L48.2545 8.09091C48.4297 7.69326 48.6181 7.27743 49.1285 7.16757L49.2548 7.75414ZM48.8069 8.32493L48.7737 8.40651L48.218 8.18039L48.2512 8.09881L48.8069 8.32493ZM48.7736 8.4069C48.6868 8.6192 48.3636 9.46357 48.0754 10.2163L47.5151 10.0017C47.8011 9.2548 48.1281 8.40039 48.2181 8.18L48.7736 8.4069ZM48.0753 10.2164L47.8854 10.7119L47.3251 10.4971L47.5151 10.0016L48.0753 10.2164ZM47.8858 10.7108C47.8388 10.8347 47.7947 10.9477 47.7569 11.0448L47.1977 10.8271C47.2359 10.7292 47.2789 10.619 47.3247 10.4981L47.8858 10.7108ZM47.757 11.0445C47.692 11.212 47.6477 11.3256 47.6295 11.3834L47.0571 11.2035C47.0829 11.1214 47.1378 10.9815 47.1976 10.8275L47.757 11.0445ZM47.6252 11.3963C47.5061 11.7226 47.6632 12.0815 47.988 12.2155L47.7592 12.7701C47.1379 12.5138 46.8318 11.8201 47.0615 11.1907L47.6252 11.3963ZM48.0033 12.2223L48.1209 12.2787L47.8614 12.8197L47.7439 12.7633L48.0033 12.2223ZM48.1175 12.2771C48.4927 12.4513 49.2781 12.8024 49.5182 13.6805L48.9395 13.8388C48.7813 13.2606 48.2662 13.0077 47.8648 12.8213L48.1175 12.2771ZM39.3896 20.7226L39.4479 20.6626L39.8779 21.0811L39.8195 21.1411L39.3896 20.7226ZM39.4447 20.666C39.649 20.4495 40.5693 19.5221 41.1936 18.9002L41.617 19.3252C40.9904 19.9494 40.0776 20.8695 39.8811 21.0777L39.4447 20.666ZM41.192 18.9018L41.4367 18.6542L41.8634 19.0761L41.6186 19.3236L41.192 18.9018ZM41.437 18.654C41.5723 18.5174 41.6718 18.4167 41.7193 18.3669L42.1534 18.7811C42.1009 18.8361 41.9965 18.9418 41.8631 19.0763L41.437 18.654ZM41.7251 18.361C42.4236 17.6683 43.5443 17.6398 44.2754 18.296L43.8746 18.7425C43.3805 18.299 42.6208 18.3177 42.1476 18.787L41.7251 18.361ZM44.2639 18.2861L44.3754 18.3765L43.9978 18.8427L43.8862 18.7524L44.2639 18.2861ZM44.3768 18.3776C44.732 18.6688 44.9677 18.839 45.249 18.7944L45.3429 19.387C44.7508 19.4808 44.3018 19.0919 43.9964 18.8417L44.3768 18.3776ZM45.2506 18.7941C45.4679 18.761 45.7573 18.603 46.1184 18.2506C46.4741 17.9034 46.8713 17.3954 47.3063 16.72L47.8108 17.0449C47.3628 17.7403 46.9378 18.2893 46.5375 18.68C46.1426 19.0653 45.7421 19.3261 45.3412 19.3873L45.2506 18.7941ZM47.3063 16.72C47.7417 16.0441 48.0405 15.4725 48.2102 15.0057C48.3826 14.5315 48.4075 14.2042 48.3489 13.9947L48.9268 13.8333C49.0354 14.222 48.9623 14.6932 48.7741 15.2107C48.5832 15.7357 48.2588 16.3492 47.8108 17.0449L47.3063 16.72ZM48.3486 13.9935C48.2731 13.7188 48.0218 13.5748 47.6031 13.3669L47.8699 12.8295C48.2294 13.008 48.7683 13.2566 48.9271 13.8345L48.3486 13.9935ZM47.6013 13.366L47.4817 13.3056L47.7522 12.77L47.8717 12.8304L47.6013 13.366ZM47.496 13.3124C46.5949 12.9155 46.1596 11.8824 46.5032 10.9593L47.0655 11.1686C46.8325 11.7946 47.1282 12.4947 47.7379 12.7633L47.496 13.3124ZM46.506 10.9519C46.5444 10.8566 46.6437 10.5994 46.7691 10.2701L47.3298 10.4836C47.2049 10.8118 47.1035 11.0745 47.0626 11.1759L46.506 10.9519ZM46.7693 10.2697L46.8893 9.95615L47.4496 10.1706L47.3297 10.4841L46.7693 10.2697ZM46.8893 9.95596C47.1894 9.17327 47.568 8.18502 47.6695 7.94587L48.2218 8.18027C48.1258 8.4066 47.7533 9.37866 47.4496 10.1708L46.8893 9.95596ZM47.6664 7.95337L47.6972 7.87499L48.2557 8.09439L48.2249 8.17277L47.6664 7.95337ZM47.6978 7.87346C47.8567 7.47551 48.1894 6.60589 49.2701 6.53208L49.311 7.13068C48.6353 7.17683 48.4225 7.67648 48.2551 8.09592L47.6978 7.87346ZM49.2679 6.53223C49.2979 6.52997 49.3287 6.52898 49.3601 6.52898V7.12898C49.3411 7.12898 49.3255 7.12959 49.3131 7.13053L49.2679 6.53223ZM49.3601 6.52898C49.7785 6.52898 50.5859 6.72305 51.3561 7.22621C52.1373 7.7365 52.8989 8.57708 53.1793 9.87988L52.5927 10.0061C52.3516 8.88592 51.703 8.16949 51.028 7.72853C50.342 7.28042 49.6471 7.12898 49.3601 7.12898V6.52898ZM53.1793 9.8798C53.4264 11.0267 53.2874 12.4121 52.8241 13.9206C52.3598 15.4323 51.5639 17.0871 50.4734 18.7831L49.9687 18.4586C51.0365 16.7978 51.8057 15.1928 52.2505 13.7444C52.6964 12.2927 52.8107 11.0176 52.5927 10.0062L53.1793 9.8798ZM50.4734 18.7831C48.3169 22.1369 45.7807 24.4049 43.4823 24.8998L43.356 24.3132C45.4142 23.87 47.8367 21.7743 49.9687 18.4586L50.4734 18.7831ZM43.4822 24.8998C43.1673 24.9674 42.8646 24.9981 42.5742 24.9981V24.3981C42.822 24.3981 43.0824 24.372 43.3562 24.3132L43.4822 24.8998ZM42.5742 24.9981C41.4879 24.9981 40.6022 24.5688 39.9683 24.0791C39.6512 23.8342 39.3938 23.5719 39.2019 23.3348C39.0139 23.1025 38.8762 22.8792 38.8133 22.7091L39.376 22.501C39.4069 22.5844 39.5 22.7495 39.6682 22.9572C39.8325 23.1601 40.0567 23.3893 40.335 23.6043C40.8919 24.0344 41.6522 24.3981 42.5742 24.3981V24.9981ZM38.8135 22.7096C38.4356 21.6937 39.0903 21.0328 39.3886 20.7236L39.8205 21.1401C39.5069 21.4652 39.1394 21.8648 39.3759 22.5004L38.8135 22.7096Z" fill="black" mask="url(#path-2-outside-1_104:1057)"/>
</svg>
