<svg width="97" height="32" viewBox="0 0 97 32" fill="none" xmlns="http://www.w3.org/2000/svg">
<path d="M9.44922 8.54688C8.13086 8.54688 6.90625 9.23242 6.23242 10.3633L6.19141 10.4336L6.16211 10.5156C6.16211 10.5156 5.62891 12.1621 5.08984 14.125C4.55078 16.0879 4 18.3027 4 19.75C4 21.8125 5.6875 23.5 7.75 23.5C9.56641 23.5 11.0957 22.1934 11.4297 20.4648L11.4062 20.5527C11.5 20.2539 11.582 19.9141 11.6641 19.5859C11.7402 19.2402 12.0391 19 12.3906 19H19.6094C19.9609 19 20.2598 19.2344 20.3359 19.5859C20.418 19.9141 20.5 20.2539 20.5938 20.5527L20.5703 20.4648C20.9043 22.1934 22.4336 23.5 24.25 23.5C26.3125 23.5 28 21.8125 28 19.75C28 18.3027 27.4492 16.0879 26.9102 14.125C26.3711 12.1621 25.8379 10.5156 25.8379 10.5156L25.8145 10.4336L25.7676 10.3633C25.0938 9.23242 23.8691 8.54688 22.5508 8.54688H9.44922ZM9.44922 10.0469H22.5508C23.3301 10.0469 24.0449 10.457 24.4551 11.1191C24.4902 11.2363 24.959 12.6777 25.4629 14.5234C25.9902 16.4453 26.5 18.7305 26.5 19.75C26.5 21.0039 25.5039 22 24.25 22C23.1484 22 22.2461 21.2148 22.0469 20.1777L22.0234 20.0957C21.9531 19.8789 21.8711 19.5566 21.7949 19.2461V19.2402C21.5605 18.2324 20.6523 17.5 19.6094 17.5H12.3906C11.3477 17.5 10.4395 18.2324 10.1992 19.2461C10.1289 19.5566 10.0469 19.8789 9.97656 20.0957L9.95312 20.1777C9.75391 21.2148 8.85156 22 7.75 22C6.49609 22 5.5 21.0039 5.5 19.75C5.5 18.7305 6.00977 16.4453 6.53711 14.5234C7.04102 12.6777 7.50977 11.2363 7.55078 11.1191C7.95508 10.457 8.66992 10.0469 9.44922 10.0469ZM10 11.5V13H8.5V14.5H10V16H11.5V14.5H13V13H11.5V11.5H10ZM21.25 11.5C20.834 11.5 20.5 11.834 20.5 12.25C20.5 12.666 20.834 13 21.25 13C21.666 13 22 12.666 22 12.25C22 11.834 21.666 11.5 21.25 11.5ZM19.75 13C19.334 13 19 13.334 19 13.75C19 14.166 19.334 14.5 19.75 14.5C20.166 14.5 20.5 14.166 20.5 13.75C20.5 13.334 20.166 13 19.75 13ZM22.75 13C22.334 13 22 13.334 22 13.75C22 14.166 22.334 14.5 22.75 14.5C23.166 14.5 23.5 14.166 23.5 13.75C23.5 13.334 23.166 13 22.75 13ZM21.25 14.5C20.834 14.5 20.5 14.834 20.5 15.25C20.5 15.666 20.834 16 21.25 16C21.666 16 22 15.666 22 15.25C22 14.834 21.666 14.5 21.25 14.5Z" fill="black"/>
<path d="M51.5758 17.9002C51.7458 18.2164 52.14 18.3349 52.4561 18.1648C52.7723 17.9948 52.8908 17.6007 52.7208 17.2845L51.5758 17.9002ZM49.4528 15.3263L49.6771 14.7162L49.6771 14.7162L49.4528 15.3263ZM46.2726 15.3851L46.0261 14.7837L46.0261 14.7837L46.2726 15.3851ZM43.9243 17.5924L44.5073 17.8798L43.9243 17.5924ZM43.5806 20.8457L44.2111 20.6874L43.5806 20.8457ZM48.5068 24.281L48.4224 23.6365L48.4224 23.6365L48.5068 24.281ZM51.3166 22.7473L51.8104 23.1699L51.8104 23.1699L51.3166 22.7473ZM52.4393 19.6855L51.7893 19.6855L51.7893 19.6857L52.4393 19.6855ZM52.4393 5.625L52.8966 5.16311C52.7102 4.97855 52.4312 4.92411 52.1891 5.0251C51.947 5.12608 51.7893 5.36269 51.7893 5.625H52.4393ZM54.8436 8.0056L55.3032 7.54597L55.3009 7.54371L54.8436 8.0056ZM56.7277 10.809C56.9816 11.0628 57.3931 11.0628 57.647 10.809C57.9008 10.5551 57.9008 10.1436 57.647 9.88973L56.7277 10.809ZM52.7208 17.2845C52.105 16.1395 50.8365 15.1424 49.6771 14.7162L49.2285 15.9364C50.1325 16.2687 51.1308 17.0727 51.5758 17.9002L52.7208 17.2845ZM49.6771 14.7162C48.4928 14.2809 47.1941 14.305 46.0261 14.7837L46.5192 15.9866C47.3867 15.631 48.3495 15.6132 49.2285 15.9364L49.6771 14.7162ZM46.0261 14.7837C44.8586 15.2623 43.9056 16.1604 43.3413 17.305L44.5073 17.8798C44.9343 17.0138 45.6511 16.3424 46.5192 15.9866L46.0261 14.7837ZM43.3413 17.305C42.7773 18.4491 42.6387 19.7639 42.9502 21.0041L44.2111 20.6874C43.9744 19.7449 44.0802 18.7462 44.5073 17.8798L43.3413 17.305ZM42.9502 21.0041C43.2617 22.2445 44.0034 23.3299 45.0414 24.0537L45.785 22.9874C45.0092 22.4464 44.4477 21.6297 44.2111 20.6874L42.9502 21.0041ZM45.0414 24.0537C46.0799 24.7779 47.3422 25.0891 48.5912 24.9255L48.4224 23.6365C47.4978 23.7576 46.5603 23.528 45.785 22.9874L45.0414 24.0537ZM48.5912 24.9255C49.84 24.7619 50.9839 24.1358 51.8104 23.1699L50.8227 22.3247C50.2013 23.0509 49.3472 23.5153 48.4224 23.6365L48.5912 24.9255ZM51.8104 23.1699C52.6366 22.2045 53.0898 20.9654 53.0893 19.6852L51.7893 19.6857C51.7897 20.6599 51.4445 21.5981 50.8227 22.3247L51.8104 23.1699ZM53.0893 19.6855V5.625H51.7893V19.6855H53.0893ZM51.982 6.08689L54.3863 8.46749L55.3009 7.54371L52.8966 5.16311L51.982 6.08689ZM54.384 8.46522L56.7277 10.809L57.647 9.88973L55.3032 7.54598L54.384 8.46522Z" fill="black"/>
<mask id="path-3-outside-1_106:1058" maskUnits="userSpaceOnUse" x="73" y="5.82898" width="16" height="20" fill="black">
<rect fill="white" x="73" y="5.82898" width="16" height="20"/>
<path fill-rule="evenodd" clip-rule="evenodd" d="M84.2289 13.7597C84.4524 14.5703 84.0845 15.6728 83.0711 17.2288C82.0522 18.7928 81.1992 19.5818 80.3866 19.7114C79.6756 19.823 79.1625 19.4043 78.7818 19.0935L78.679 19.0072C78.3063 18.6481 77.7269 18.6513 77.3594 19.014L76.8259 19.553C76.1897 20.1917 75.2979 21.0938 75.1011 21.2994L75.0412 21.3626C74.7268 21.6985 74.5157 21.9688 74.6645 22.3935C74.8504 22.861 76.2257 24.4458 78.2891 24.0019C80.2874 23.5716 82.6257 21.4833 84.7051 18.2725C86.7762 15.0749 87.7152 12.0865 87.2817 10.073C86.845 8.04591 84.8979 7.43087 84.3564 7.43087C84.346 7.43087 84.3364 7.43087 84.3272 7.43167C84.282 7.43766 84.2377 7.44726 84.1917 7.46086C83.8498 7.53444 83.713 7.79438 83.529 8.21187L83.4958 8.29345C83.4075 8.5098 83.0823 9.35918 82.7952 10.109L82.6053 10.6045C82.5589 10.7268 82.5153 10.8384 82.4773 10.936C82.4149 11.0967 82.3653 11.2235 82.3433 11.2935C82.169 11.7714 82.4005 12.2976 82.8736 12.4928L82.9912 12.5492C83.3795 12.7295 84.0297 13.0315 84.2289 13.7597M74.6045 20.9318L74.6629 20.8719C74.8633 20.6595 75.7798 19.7357 76.4053 19.1127L76.65 18.8652C76.7844 18.7296 76.8864 18.6264 76.9364 18.574C77.5222 17.993 78.4624 17.9694 79.075 18.5192L79.1866 18.6096C79.5169 18.8804 79.8592 19.1599 80.2959 19.0907C80.9142 18.9963 81.6756 18.2533 82.5585 16.8825C83.4419 15.5108 83.805 14.5123 83.6379 13.914C83.5207 13.4877 83.1256 13.2914 82.7365 13.0982L82.6169 13.0378C81.8615 12.7051 81.496 11.8385 81.7843 11.0639C81.8239 10.9655 81.9243 10.7056 82.0495 10.3769L82.1694 10.0634C82.4714 9.27597 82.8469 8.29581 82.9456 8.06307L82.9764 7.98469C83.1396 7.57599 83.4123 6.89136 84.2905 6.83138C84.3117 6.82978 84.3349 6.82898 84.3601 6.82898C85.0655 6.82898 87.3645 7.52001 87.886 9.943C88.3511 12.1013 87.3793 15.2641 85.2211 18.6208C83.0768 21.9556 80.5974 24.1374 78.4192 24.6065C78.1249 24.6697 77.8433 24.6981 77.5742 24.6981C75.5659 24.6981 74.2822 23.1121 74.0947 22.605C73.7875 21.7792 74.2986 21.249 74.6045 20.9318"/>
</mask>
<path fill-rule="evenodd" clip-rule="evenodd" d="M84.2289 13.7597C84.4524 14.5703 84.0845 15.6728 83.0711 17.2288C82.0522 18.7928 81.1992 19.5818 80.3866 19.7114C79.6756 19.823 79.1625 19.4043 78.7818 19.0935L78.679 19.0072C78.3063 18.6481 77.7269 18.6513 77.3594 19.014L76.8259 19.553C76.1897 20.1917 75.2979 21.0938 75.1011 21.2994L75.0412 21.3626C74.7268 21.6985 74.5157 21.9688 74.6645 22.3935C74.8504 22.861 76.2257 24.4458 78.2891 24.0019C80.2874 23.5716 82.6257 21.4833 84.7051 18.2725C86.7762 15.0749 87.7152 12.0865 87.2817 10.073C86.845 8.04591 84.8979 7.43087 84.3564 7.43087C84.346 7.43087 84.3364 7.43087 84.3272 7.43167C84.282 7.43766 84.2377 7.44726 84.1917 7.46086C83.8498 7.53444 83.713 7.79438 83.529 8.21187L83.4958 8.29345C83.4075 8.5098 83.0823 9.35918 82.7952 10.109L82.6053 10.6045C82.5589 10.7268 82.5153 10.8384 82.4773 10.936C82.4149 11.0967 82.3653 11.2235 82.3433 11.2935C82.169 11.7714 82.4005 12.2976 82.8736 12.4928L82.9912 12.5492C83.3795 12.7295 84.0297 13.0315 84.2289 13.7597M74.6045 20.9318L74.6629 20.8719C74.8633 20.6595 75.7798 19.7357 76.4053 19.1127L76.65 18.8652C76.7844 18.7296 76.8864 18.6264 76.9364 18.574C77.5222 17.993 78.4624 17.9694 79.075 18.5192L79.1866 18.6096C79.5169 18.8804 79.8592 19.1599 80.2959 19.0907C80.9142 18.9963 81.6756 18.2533 82.5585 16.8825C83.4419 15.5108 83.805 14.5123 83.6379 13.914C83.5207 13.4877 83.1256 13.2914 82.7365 13.0982L82.6169 13.0378C81.8615 12.7051 81.496 11.8385 81.7843 11.0639C81.8239 10.9655 81.9243 10.7056 82.0495 10.3769L82.1694 10.0634C82.4714 9.27597 82.8469 8.29581 82.9456 8.06307L82.9764 7.98469C83.1396 7.57599 83.4123 6.89136 84.2905 6.83138C84.3117 6.82978 84.3349 6.82898 84.3601 6.82898C85.0655 6.82898 87.3645 7.52001 87.886 9.943C88.3511 12.1013 87.3793 15.2641 85.2211 18.6208C83.0768 21.9556 80.5974 24.1374 78.4192 24.6065C78.1249 24.6697 77.8433 24.6981 77.5742 24.6981C75.5659 24.6981 74.2822 23.1121 74.0947 22.605C73.7875 21.7792 74.2986 21.249 74.6045 20.9318" fill="black"/>
<path d="M83.0711 17.2288L83.3225 17.3925L83.3225 17.3926L83.0711 17.2288ZM80.3866 19.7114L80.4339 20.0076L80.4331 20.0078L80.3866 19.7114ZM78.7818 19.0935L78.5921 19.326L78.5888 19.3232L78.7818 19.0935ZM78.679 19.0072L78.486 19.2368L78.4782 19.2303L78.4709 19.2232L78.679 19.0072ZM77.3594 19.014L77.1461 18.8029L77.1486 18.8004L77.3594 19.014ZM76.8259 19.553L77.0391 19.764L77.0384 19.7648L76.8259 19.553ZM75.1011 21.2994L74.8836 21.0928L74.8844 21.0919L75.1011 21.2994ZM75.0412 21.3626L74.8221 21.1576L74.8236 21.156L75.0412 21.3626ZM74.6645 22.3935L74.3855 22.5045L74.3813 22.4927L74.6645 22.3935ZM78.2891 24.0019L78.3523 24.2952L78.3522 24.2952L78.2891 24.0019ZM84.7051 18.2725L84.4533 18.1095L84.4533 18.1095L84.7051 18.2725ZM87.2817 10.073L87.575 10.0098L87.575 10.0099L87.2817 10.073ZM84.3272 7.43167L84.2877 7.13397L84.3012 7.13279L84.3272 7.43167ZM84.1917 7.46086L84.2767 7.74855L84.2659 7.75176L84.2548 7.75414L84.1917 7.46086ZM83.529 8.21187L83.251 8.09877L83.2545 8.09091L83.529 8.21187ZM83.4958 8.29345L83.7737 8.40651L83.7736 8.4069L83.4958 8.29345ZM82.7952 10.109L83.0754 10.2163L83.0753 10.2164L82.7952 10.109ZM82.6053 10.6045L82.3247 10.4981L82.3251 10.4971L82.6053 10.6045ZM82.4773 10.936L82.1976 10.8275L82.1977 10.8271L82.4773 10.936ZM82.3433 11.2935L82.6298 11.3835L82.6252 11.3963L82.3433 11.2935ZM82.8736 12.4928L82.988 12.2155L82.9958 12.2187L83.0033 12.2223L82.8736 12.4928ZM82.9912 12.5492L82.8648 12.8213L82.8614 12.8197L82.9912 12.5492ZM74.6629 20.8719L74.8812 21.0778L74.8779 21.0811L74.6629 20.8719ZM76.4053 19.1127L76.6186 19.3236L76.617 19.3252L76.4053 19.1127ZM76.65 18.8652L76.4367 18.6542L76.437 18.654L76.65 18.8652ZM76.9364 18.574L76.7192 18.3669L76.7251 18.361L76.9364 18.574ZM79.075 18.5192L78.8862 18.7524L78.8803 18.7476L78.8746 18.7425L79.075 18.5192ZM79.1866 18.6096L79.3754 18.3765L79.3768 18.3776L79.1866 18.6096ZM80.2959 19.0907L80.249 18.7944L80.2506 18.7941L80.2959 19.0907ZM82.5585 16.8825L82.8108 17.0449L82.8108 17.0449L82.5585 16.8825ZM83.6379 13.914L83.3489 13.9947L83.3486 13.9935L83.6379 13.914ZM82.7365 13.0982L82.6031 13.3669L82.6013 13.366L82.7365 13.0982ZM82.6169 13.0378L82.7379 12.7633L82.7451 12.7665L82.7522 12.77L82.6169 13.0378ZM81.7843 11.0639L81.5031 10.9592L81.506 10.9519L81.7843 11.0639ZM82.0495 10.3769L81.7691 10.2701L81.7693 10.2697L82.0495 10.3769ZM82.1694 10.0634L81.8893 9.95615L81.8893 9.95596L82.1694 10.0634ZM82.9456 8.06307L83.225 8.17281L83.2218 8.18027L82.9456 8.06307ZM82.9764 7.98469L82.6972 7.87499L82.6978 7.87346L82.9764 7.98469ZM84.2905 6.83138L84.3131 7.13054L84.311 7.13068L84.2905 6.83138ZM87.886 9.943L87.5927 10.0062L87.5927 10.0061L87.886 9.943ZM85.2211 18.6208L85.4734 18.7831L85.4734 18.7831L85.2211 18.6208ZM78.4192 24.6065L78.4823 24.8998L78.4822 24.8998L78.4192 24.6065ZM74.0947 22.605L74.3759 22.5004L74.376 22.501L74.0947 22.605ZM84.5181 13.6799C84.6509 14.1616 84.6006 14.7039 84.3984 15.3097C84.1964 15.915 83.8362 16.6038 83.3225 17.3925L82.8198 17.0651C83.3194 16.2978 83.6499 15.6573 83.8293 15.1197C84.0085 14.5826 84.0304 14.1683 83.9397 13.8394L84.5181 13.6799ZM83.3225 17.3926C82.8063 18.1848 82.3228 18.7958 81.8552 19.2283C81.3877 19.6606 80.9191 19.9303 80.4339 20.0076L80.3394 19.4151C80.6667 19.3629 81.0309 19.1733 81.4478 18.7878C81.8645 18.4024 82.317 17.8368 82.8198 17.065L83.3225 17.3926ZM80.4331 20.0078C79.5734 20.1427 78.9608 19.6268 78.5921 19.326L78.9715 18.8611C79.3643 19.1817 79.7778 19.5032 80.3401 19.415L80.4331 20.0078ZM78.5888 19.3232L78.486 19.2368L78.8721 18.7775L78.9748 18.8639L78.5888 19.3232ZM78.4709 19.2232C78.2151 18.9767 77.8215 18.9794 77.5701 19.2275L77.1486 18.8004C77.6323 18.3231 78.3976 18.3194 78.8872 18.7911L78.4709 19.2232ZM77.5726 19.225L77.0391 19.764L76.6127 19.342L77.1461 18.8029L77.5726 19.225ZM77.0384 19.7648C76.4015 20.4041 75.5121 21.3039 75.3179 21.5068L74.8844 21.0919C75.0837 20.8838 75.9778 19.9792 76.6134 19.3413L77.0384 19.7648ZM75.3187 21.5059L75.2587 21.5691L74.8236 21.156L74.8836 21.0928L75.3187 21.5059ZM75.2602 21.5675C75.1007 21.738 75.003 21.8566 74.9525 21.9683C74.9111 22.06 74.8984 22.154 74.9476 22.2943L74.3813 22.4927C74.2817 22.2083 74.3002 21.9548 74.4058 21.7212C74.5023 21.5076 74.6673 21.3231 74.8221 21.1576L75.2602 21.5675ZM74.9432 22.2826C74.971 22.3524 75.0657 22.5085 75.2417 22.7034C75.4127 22.8927 75.6463 23.1028 75.9342 23.2866C76.5078 23.6529 77.2875 23.9105 78.2261 23.7086L78.3522 24.2952C77.2273 24.5372 76.2877 24.2243 75.6113 23.7923C75.2741 23.577 75.0001 23.331 74.7965 23.1056C74.5978 22.8857 74.4509 22.6683 74.3857 22.5044L74.9432 22.2826ZM78.226 23.7086C79.1555 23.5085 80.1939 22.9143 81.2669 21.9562C82.3368 21.0007 83.4245 19.698 84.4533 18.1095L84.9569 18.4356C83.9063 20.0579 82.7851 21.4047 81.6665 22.4037C80.5509 23.3999 79.4211 24.0651 78.3523 24.2952L78.226 23.7086ZM84.4533 18.1095C85.4777 16.5279 86.2169 15.0059 86.6464 13.6388C87.0771 12.2681 87.1903 11.0737 86.9884 10.1361L87.575 10.0099C87.8066 11.0858 87.667 12.3924 87.2188 13.8187C86.7695 15.2486 86.0036 16.8196 84.9569 18.4356L84.4533 18.1095ZM86.9884 10.1362C86.7898 9.21404 86.2502 8.61456 85.6916 8.24118C85.121 7.85972 84.5559 7.73087 84.3564 7.73087V7.13087C84.6984 7.13087 85.3776 7.30953 86.0251 7.74237C86.6846 8.18329 87.3369 8.90488 87.575 10.0098L86.9884 10.1362ZM84.3564 7.73087C84.3506 7.73087 84.3488 7.73088 84.3476 7.7309C84.3467 7.73092 84.3491 7.7309 84.3532 7.73054L84.3012 7.13279C84.3258 7.13066 84.3488 7.13087 84.3564 7.13087V7.73087ZM84.3667 7.72906C84.338 7.73287 84.3088 7.73906 84.2767 7.74855L84.1066 7.17317C84.1665 7.15546 84.2261 7.14246 84.2878 7.13428L84.3667 7.72906ZM84.2548 7.75414C84.0814 7.79145 83.9963 7.89549 83.8036 8.33283L83.2545 8.09091C83.4297 7.69326 83.6181 7.27743 84.1285 7.16757L84.2548 7.75414ZM83.8069 8.32493L83.7737 8.40651L83.218 8.18039L83.2512 8.09881L83.8069 8.32493ZM83.7736 8.4069C83.6868 8.6192 83.3636 9.46357 83.0754 10.2163L82.5151 10.0017C82.8011 9.2548 83.1281 8.40039 83.2181 8.18L83.7736 8.4069ZM83.0753 10.2164L82.8854 10.7119L82.3251 10.4971L82.5151 10.0016L83.0753 10.2164ZM82.8858 10.7108C82.8388 10.8347 82.7947 10.9477 82.7569 11.0448L82.1977 10.8271C82.2359 10.7292 82.2789 10.619 82.3247 10.4981L82.8858 10.7108ZM82.757 11.0445C82.692 11.212 82.6477 11.3256 82.6295 11.3834L82.0571 11.2035C82.0829 11.1214 82.1378 10.9815 82.1976 10.8275L82.757 11.0445ZM82.6252 11.3963C82.5061 11.7226 82.6632 12.0815 82.988 12.2155L82.7592 12.7701C82.1379 12.5138 81.8318 11.8201 82.0615 11.1907L82.6252 11.3963ZM83.0033 12.2223L83.1209 12.2787L82.8614 12.8197L82.7439 12.7633L83.0033 12.2223ZM83.1175 12.2771C83.4927 12.4513 84.2781 12.8024 84.5182 13.6805L83.9395 13.8388C83.7813 13.2606 83.2662 13.0077 82.8648 12.8213L83.1175 12.2771ZM74.3896 20.7226L74.4479 20.6626L74.8779 21.0811L74.8195 21.1411L74.3896 20.7226ZM74.4447 20.666C74.649 20.4495 75.5693 19.5221 76.1936 18.9002L76.617 19.3252C75.9904 19.9494 75.0776 20.8695 74.8811 21.0777L74.4447 20.666ZM76.192 18.9018L76.4367 18.6542L76.8634 19.0761L76.6186 19.3236L76.192 18.9018ZM76.437 18.654C76.5723 18.5174 76.6718 18.4167 76.7193 18.3669L77.1534 18.7811C77.1009 18.8361 76.9965 18.9418 76.8631 19.0763L76.437 18.654ZM76.7251 18.361C77.4236 17.6683 78.5443 17.6398 79.2754 18.296L78.8746 18.7425C78.3805 18.299 77.6208 18.3177 77.1476 18.787L76.7251 18.361ZM79.2639 18.2861L79.3754 18.3765L78.9978 18.8427L78.8862 18.7524L79.2639 18.2861ZM79.3768 18.3776C79.732 18.6688 79.9677 18.839 80.249 18.7944L80.3429 19.387C79.7508 19.4808 79.3018 19.0919 78.9964 18.8417L79.3768 18.3776ZM80.2506 18.7941C80.4679 18.761 80.7573 18.603 81.1184 18.2506C81.4741 17.9034 81.8713 17.3954 82.3063 16.72L82.8108 17.0449C82.3628 17.7403 81.9378 18.2893 81.5375 18.68C81.1426 19.0653 80.7421 19.3261 80.3412 19.3873L80.2506 18.7941ZM82.3063 16.72C82.7417 16.0441 83.0405 15.4725 83.2102 15.0057C83.3826 14.5315 83.4075 14.2042 83.3489 13.9947L83.9268 13.8333C84.0354 14.222 83.9623 14.6932 83.7741 15.2107C83.5832 15.7357 83.2588 16.3492 82.8108 17.0449L82.3063 16.72ZM83.3486 13.9935C83.2731 13.7188 83.0218 13.5748 82.6031 13.3669L82.8699 12.8295C83.2294 13.008 83.7683 13.2566 83.9271 13.8345L83.3486 13.9935ZM82.6013 13.366L82.4817 13.3056L82.7522 12.77L82.8717 12.8304L82.6013 13.366ZM82.496 13.3124C81.5949 12.9155 81.1596 11.8824 81.5032 10.9593L82.0655 11.1686C81.8325 11.7946 82.1282 12.4947 82.7379 12.7633L82.496 13.3124ZM81.506 10.9519C81.5444 10.8566 81.6437 10.5994 81.7691 10.2701L82.3298 10.4836C82.2049 10.8118 82.1035 11.0745 82.0626 11.1759L81.506 10.9519ZM81.7693 10.2697L81.8893 9.95615L82.4496 10.1706L82.3297 10.4841L81.7693 10.2697ZM81.8893 9.95596C82.1894 9.17327 82.568 8.18502 82.6695 7.94587L83.2218 8.18027C83.1258 8.4066 82.7533 9.37866 82.4496 10.1708L81.8893 9.95596ZM82.6664 7.95337L82.6972 7.87499L83.2557 8.09439L83.2249 8.17277L82.6664 7.95337ZM82.6978 7.87346C82.8567 7.47551 83.1894 6.60589 84.2701 6.53208L84.311 7.13068C83.6353 7.17683 83.4225 7.67648 83.2551 8.09592L82.6978 7.87346ZM84.2679 6.53223C84.2979 6.52997 84.3287 6.52898 84.3601 6.52898V7.12898C84.3411 7.12898 84.3255 7.12959 84.3131 7.13053L84.2679 6.53223ZM84.3601 6.52898C84.7785 6.52898 85.5859 6.72305 86.3561 7.22621C87.1373 7.7365 87.8989 8.57708 88.1793 9.87988L87.5927 10.0061C87.3516 8.88592 86.703 8.16949 86.028 7.72853C85.342 7.28042 84.6471 7.12898 84.3601 7.12898V6.52898ZM88.1793 9.8798C88.4264 11.0267 88.2874 12.4121 87.8241 13.9206C87.3598 15.4323 86.5639 17.0871 85.4734 18.7831L84.9687 18.4586C86.0365 16.7978 86.8057 15.1928 87.2505 13.7444C87.6964 12.2927 87.8107 11.0176 87.5927 10.0062L88.1793 9.8798ZM85.4734 18.7831C83.3169 22.1369 80.7807 24.4049 78.4823 24.8998L78.356 24.3132C80.4142 23.87 82.8367 21.7743 84.9687 18.4586L85.4734 18.7831ZM78.4822 24.8998C78.1673 24.9674 77.8646 24.9981 77.5742 24.9981V24.3981C77.822 24.3981 78.0824 24.372 78.3562 24.3132L78.4822 24.8998ZM77.5742 24.9981C76.4879 24.9981 75.6022 24.5688 74.9683 24.0791C74.6512 23.8342 74.3938 23.5719 74.2019 23.3348C74.0139 23.1025 73.8762 22.8792 73.8133 22.7091L74.376 22.501C74.4069 22.5844 74.5 22.7495 74.6682 22.9572C74.8325 23.1601 75.0567 23.3893 75.335 23.6043C75.8919 24.0344 76.6522 24.3981 77.5742 24.3981V24.9981ZM73.8135 22.7096C73.4356 21.6937 74.0903 21.0328 74.3886 20.7236L74.8205 21.1401C74.5069 21.4652 74.1394 21.8648 74.3759 22.5004L73.8135 22.7096Z" fill="black" mask="url(#path-3-outside-1_106:1058)"/>
</svg>
