<svg width="81" height="32" viewBox="0 0 81 32" fill="none" xmlns="http://www.w3.org/2000/svg">
<path d="M35.5758 17.9002C35.7458 18.2164 36.14 18.3349 36.4561 18.1648C36.7723 17.9948 36.8908 17.6007 36.7208 17.2845L35.5758 17.9002ZM33.4528 15.3263L33.6771 14.7162L33.6771 14.7162L33.4528 15.3263ZM30.2726 15.3851L30.0261 14.7837L30.0261 14.7837L30.2726 15.3851ZM27.9243 17.5924L28.5073 17.8798L27.9243 17.5924ZM27.5806 20.8457L28.2111 20.6874L27.5806 20.8457ZM32.5068 24.281L32.4224 23.6365L32.4224 23.6365L32.5068 24.281ZM35.3166 22.7473L35.8104 23.1699L35.8104 23.1699L35.3166 22.7473ZM36.4393 19.6855L35.7893 19.6855L35.7893 19.6857L36.4393 19.6855ZM36.4393 5.625L36.8966 5.16311C36.7102 4.97855 36.4312 4.92411 36.1891 5.0251C35.947 5.12608 35.7893 5.36269 35.7893 5.625H36.4393ZM38.8436 8.0056L39.3032 7.54597L39.3009 7.54371L38.8436 8.0056ZM40.7277 10.809C40.9816 11.0628 41.3931 11.0628 41.647 10.809C41.9008 10.5551 41.9008 10.1436 41.647 9.88973L40.7277 10.809ZM36.7208 17.2845C36.105 16.1395 34.8365 15.1424 33.6771 14.7162L33.2285 15.9364C34.1325 16.2687 35.1308 17.0727 35.5758 17.9002L36.7208 17.2845ZM33.6771 14.7162C32.4928 14.2809 31.1941 14.305 30.0261 14.7837L30.5192 15.9866C31.3867 15.631 32.3495 15.6132 33.2285 15.9364L33.6771 14.7162ZM30.0261 14.7837C28.8586 15.2623 27.9056 16.1604 27.3413 17.305L28.5073 17.8798C28.9343 17.0138 29.6511 16.3424 30.5192 15.9866L30.0261 14.7837ZM27.3413 17.305C26.7773 18.4491 26.6387 19.7639 26.9502 21.0041L28.2111 20.6874C27.9744 19.7449 28.0802 18.7462 28.5073 17.8798L27.3413 17.305ZM26.9502 21.0041C27.2617 22.2445 28.0034 23.3299 29.0414 24.0537L29.785 22.9874C29.0092 22.4464 28.4477 21.6297 28.2111 20.6874L26.9502 21.0041ZM29.0414 24.0537C30.0799 24.7779 31.3422 25.0891 32.5912 24.9255L32.4224 23.6365C31.4978 23.7576 30.5603 23.528 29.785 22.9874L29.0414 24.0537ZM32.5912 24.9255C33.84 24.7619 34.9839 24.1358 35.8104 23.1699L34.8227 22.3247C34.2013 23.0509 33.3472 23.5153 32.4224 23.6365L32.5912 24.9255ZM35.8104 23.1699C36.6366 22.2045 37.0898 20.9654 37.0893 19.6852L35.7893 19.6857C35.7897 20.6599 35.4445 21.5981 34.8227 22.3247L35.8104 23.1699ZM37.0893 19.6855V5.625H35.7893V19.6855H37.0893ZM35.982 6.08689L38.3863 8.46749L39.3009 7.54371L36.8966 5.16311L35.982 6.08689ZM38.384 8.46522L40.7277 10.809L41.647 9.88973L39.3032 7.54598L38.384 8.46522Z" fill="black"/>
<path d="M16.5758 17.9002C16.7458 18.2164 17.14 18.3349 17.4561 18.1648C17.7723 17.9948 17.8908 17.6007 17.7208 17.2845L16.5758 17.9002ZM14.4528 15.3263L14.6771 14.7162L14.6771 14.7162L14.4528 15.3263ZM11.2726 15.3851L11.0261 14.7837L11.0261 14.7837L11.2726 15.3851ZM8.92434 17.5924L9.50734 17.8798L8.92434 17.5924ZM8.58064 20.8457L9.21106 20.6874L8.58064 20.8457ZM13.5068 24.281L13.4224 23.6365L13.4224 23.6365L13.5068 24.281ZM16.3166 22.7473L16.8104 23.1699L16.8104 23.1699L16.3166 22.7473ZM17.4393 19.6855L16.7893 19.6855L16.7893 19.6857L17.4393 19.6855ZM17.4393 5.625L17.8966 5.16311C17.7102 4.97855 17.4312 4.92411 17.1891 5.0251C16.947 5.12608 16.7893 5.36269 16.7893 5.625H17.4393ZM19.8436 8.0056L20.3032 7.54597L20.3009 7.54371L19.8436 8.0056ZM21.7277 10.809C21.9816 11.0628 22.3931 11.0628 22.647 10.809C22.9008 10.5551 22.9008 10.1436 22.647 9.88973L21.7277 10.809ZM17.7208 17.2845C17.105 16.1395 15.8365 15.1424 14.6771 14.7162L14.2285 15.9364C15.1325 16.2687 16.1308 17.0727 16.5758 17.9002L17.7208 17.2845ZM14.6771 14.7162C13.4928 14.2809 12.1941 14.305 11.0261 14.7837L11.5192 15.9866C12.3867 15.631 13.3495 15.6132 14.2285 15.9364L14.6771 14.7162ZM11.0261 14.7837C9.85861 15.2623 8.90557 16.1604 8.34134 17.305L9.50734 17.8798C9.93429 17.0138 10.6511 16.3424 11.5192 15.9866L11.0261 14.7837ZM8.34134 17.305C7.77729 18.4491 7.63874 19.7639 7.95022 21.0041L9.21106 20.6874C8.97436 19.7449 9.08021 18.7462 9.50734 17.8798L8.34134 17.305ZM7.95022 21.0041C8.26175 22.2445 9.00341 23.3299 10.0414 24.0537L10.785 22.9874C10.0092 22.4464 9.44771 21.6297 9.21106 20.6874L7.95022 21.0041ZM10.0414 24.0537C11.0799 24.7779 12.3422 25.0891 13.5912 24.9255L13.4224 23.6365C12.4978 23.7576 11.5603 23.528 10.785 22.9874L10.0414 24.0537ZM13.5912 24.9255C14.84 24.7619 15.9839 24.1358 16.8104 23.1699L15.8227 22.3247C15.2013 23.0509 14.3472 23.5153 13.4224 23.6365L13.5912 24.9255ZM16.8104 23.1699C17.6366 22.2045 18.0898 20.9654 18.0893 19.6852L16.7893 19.6857C16.7897 20.6599 16.4445 21.5981 15.8227 22.3247L16.8104 23.1699ZM18.0893 19.6855V5.625H16.7893V19.6855H18.0893ZM16.982 6.08689L19.3863 8.46749L20.3009 7.54371L17.8966 5.16311L16.982 6.08689ZM19.384 8.46522L21.7277 10.809L22.647 9.88973L20.3032 7.54598L19.384 8.46522Z" fill="black"/>
<mask id="path-3-outside-1_104:1056" maskUnits="userSpaceOnUse" x="57" y="5.82898" width="16" height="20" fill="black">
<rect fill="white" x="57" y="5.82898" width="16" height="20"/>
<path fill-rule="evenodd" clip-rule="evenodd" d="M68.2289 13.7597C68.4524 14.5703 68.0845 15.6728 67.0711 17.2288C66.0522 18.7928 65.1992 19.5818 64.3866 19.7114C63.6756 19.823 63.1625 19.4043 62.7818 19.0935L62.679 19.0072C62.3063 18.6481 61.7269 18.6513 61.3594 19.014L60.8259 19.553C60.1897 20.1917 59.2979 21.0938 59.1011 21.2994L59.0412 21.3626C58.7268 21.6985 58.5157 21.9688 58.6645 22.3935C58.8504 22.861 60.2257 24.4458 62.2891 24.0019C64.2874 23.5716 66.6257 21.4833 68.7051 18.2725C70.7762 15.0749 71.7152 12.0865 71.2817 10.073C70.845 8.04591 68.8979 7.43087 68.3564 7.43087C68.346 7.43087 68.3364 7.43087 68.3272 7.43167C68.282 7.43766 68.2377 7.44726 68.1917 7.46086C67.8498 7.53444 67.713 7.79438 67.529 8.21187L67.4958 8.29345C67.4075 8.5098 67.0823 9.35918 66.7952 10.109L66.6053 10.6045C66.5589 10.7268 66.5153 10.8384 66.4773 10.936C66.4149 11.0967 66.3653 11.2235 66.3433 11.2935C66.169 11.7714 66.4005 12.2976 66.8736 12.4928L66.9912 12.5492C67.3795 12.7295 68.0297 13.0315 68.2289 13.7597M58.6045 20.9318L58.6629 20.8719C58.8633 20.6595 59.7798 19.7357 60.4053 19.1127L60.65 18.8652C60.7844 18.7296 60.8864 18.6264 60.9364 18.574C61.5222 17.993 62.4624 17.9694 63.075 18.5192L63.1866 18.6096C63.5169 18.8804 63.8592 19.1599 64.2959 19.0907C64.9142 18.9963 65.6756 18.2533 66.5585 16.8825C67.4419 15.5108 67.805 14.5123 67.6379 13.914C67.5207 13.4877 67.1256 13.2914 66.7365 13.0982L66.6169 13.0378C65.8615 12.7051 65.496 11.8385 65.7843 11.0639C65.8239 10.9655 65.9243 10.7056 66.0495 10.3769L66.1694 10.0634C66.4714 9.27597 66.8469 8.29581 66.9456 8.06307L66.9764 7.98469C67.1396 7.57599 67.4123 6.89136 68.2905 6.83138C68.3117 6.82978 68.3349 6.82898 68.3601 6.82898C69.0655 6.82898 71.3645 7.52001 71.886 9.943C72.3511 12.1013 71.3793 15.2641 69.2211 18.6208C67.0768 21.9556 64.5974 24.1374 62.4192 24.6065C62.1249 24.6697 61.8433 24.6981 61.5742 24.6981C59.5659 24.6981 58.2822 23.1121 58.0947 22.605C57.7875 21.7792 58.2986 21.249 58.6045 20.9318"/>
</mask>
<path fill-rule="evenodd" clip-rule="evenodd" d="M68.2289 13.7597C68.4524 14.5703 68.0845 15.6728 67.0711 17.2288C66.0522 18.7928 65.1992 19.5818 64.3866 19.7114C63.6756 19.823 63.1625 19.4043 62.7818 19.0935L62.679 19.0072C62.3063 18.6481 61.7269 18.6513 61.3594 19.014L60.8259 19.553C60.1897 20.1917 59.2979 21.0938 59.1011 21.2994L59.0412 21.3626C58.7268 21.6985 58.5157 21.9688 58.6645 22.3935C58.8504 22.861 60.2257 24.4458 62.2891 24.0019C64.2874 23.5716 66.6257 21.4833 68.7051 18.2725C70.7762 15.0749 71.7152 12.0865 71.2817 10.073C70.845 8.04591 68.8979 7.43087 68.3564 7.43087C68.346 7.43087 68.3364 7.43087 68.3272 7.43167C68.282 7.43766 68.2377 7.44726 68.1917 7.46086C67.8498 7.53444 67.713 7.79438 67.529 8.21187L67.4958 8.29345C67.4075 8.5098 67.0823 9.35918 66.7952 10.109L66.6053 10.6045C66.5589 10.7268 66.5153 10.8384 66.4773 10.936C66.4149 11.0967 66.3653 11.2235 66.3433 11.2935C66.169 11.7714 66.4005 12.2976 66.8736 12.4928L66.9912 12.5492C67.3795 12.7295 68.0297 13.0315 68.2289 13.7597M58.6045 20.9318L58.6629 20.8719C58.8633 20.6595 59.7798 19.7357 60.4053 19.1127L60.65 18.8652C60.7844 18.7296 60.8864 18.6264 60.9364 18.574C61.5222 17.993 62.4624 17.9694 63.075 18.5192L63.1866 18.6096C63.5169 18.8804 63.8592 19.1599 64.2959 19.0907C64.9142 18.9963 65.6756 18.2533 66.5585 16.8825C67.4419 15.5108 67.805 14.5123 67.6379 13.914C67.5207 13.4877 67.1256 13.2914 66.7365 13.0982L66.6169 13.0378C65.8615 12.7051 65.496 11.8385 65.7843 11.0639C65.8239 10.9655 65.9243 10.7056 66.0495 10.3769L66.1694 10.0634C66.4714 9.27597 66.8469 8.29581 66.9456 8.06307L66.9764 7.98469C67.1396 7.57599 67.4123 6.89136 68.2905 6.83138C68.3117 6.82978 68.3349 6.82898 68.3601 6.82898C69.0655 6.82898 71.3645 7.52001 71.886 9.943C72.3511 12.1013 71.3793 15.2641 69.2211 18.6208C67.0768 21.9556 64.5974 24.1374 62.4192 24.6065C62.1249 24.6697 61.8433 24.6981 61.5742 24.6981C59.5659 24.6981 58.2822 23.1121 58.0947 22.605C57.7875 21.7792 58.2986 21.249 58.6045 20.9318" fill="black"/>
<path d="M67.0711 17.2288L67.3225 17.3925L67.3225 17.3926L67.0711 17.2288ZM64.3866 19.7114L64.4339 20.0076L64.4331 20.0078L64.3866 19.7114ZM62.7818 19.0935L62.5921 19.326L62.5888 19.3232L62.7818 19.0935ZM62.679 19.0072L62.486 19.2368L62.4782 19.2303L62.4709 19.2232L62.679 19.0072ZM61.3594 19.014L61.1461 18.8029L61.1486 18.8004L61.3594 19.014ZM60.8259 19.553L61.0391 19.764L61.0384 19.7648L60.8259 19.553ZM59.1011 21.2994L58.8836 21.0928L58.8844 21.0919L59.1011 21.2994ZM59.0412 21.3626L58.8221 21.1576L58.8236 21.156L59.0412 21.3626ZM58.6645 22.3935L58.3855 22.5045L58.3813 22.4927L58.6645 22.3935ZM62.2891 24.0019L62.3523 24.2952L62.3522 24.2952L62.2891 24.0019ZM68.7051 18.2725L68.4533 18.1095L68.4533 18.1095L68.7051 18.2725ZM71.2817 10.073L71.575 10.0098L71.575 10.0099L71.2817 10.073ZM68.3272 7.43167L68.2877 7.13397L68.3012 7.13279L68.3272 7.43167ZM68.1917 7.46086L68.2767 7.74855L68.2659 7.75176L68.2548 7.75414L68.1917 7.46086ZM67.529 8.21187L67.251 8.09877L67.2545 8.09091L67.529 8.21187ZM67.4958 8.29345L67.7737 8.40651L67.7736 8.4069L67.4958 8.29345ZM66.7952 10.109L67.0754 10.2163L67.0753 10.2164L66.7952 10.109ZM66.6053 10.6045L66.3247 10.4981L66.3251 10.4971L66.6053 10.6045ZM66.4773 10.936L66.1976 10.8275L66.1977 10.8271L66.4773 10.936ZM66.3433 11.2935L66.6298 11.3835L66.6252 11.3963L66.3433 11.2935ZM66.8736 12.4928L66.988 12.2155L66.9958 12.2187L67.0033 12.2223L66.8736 12.4928ZM66.9912 12.5492L66.8648 12.8213L66.8614 12.8197L66.9912 12.5492ZM58.6629 20.8719L58.8812 21.0778L58.8779 21.0811L58.6629 20.8719ZM60.4053 19.1127L60.6186 19.3236L60.617 19.3252L60.4053 19.1127ZM60.65 18.8652L60.4367 18.6542L60.437 18.654L60.65 18.8652ZM60.9364 18.574L60.7192 18.3669L60.7251 18.361L60.9364 18.574ZM63.075 18.5192L62.8862 18.7524L62.8803 18.7476L62.8746 18.7425L63.075 18.5192ZM63.1866 18.6096L63.3754 18.3765L63.3768 18.3776L63.1866 18.6096ZM64.2959 19.0907L64.249 18.7944L64.2506 18.7941L64.2959 19.0907ZM66.5585 16.8825L66.8108 17.0449L66.8108 17.0449L66.5585 16.8825ZM67.6379 13.914L67.3489 13.9947L67.3486 13.9935L67.6379 13.914ZM66.7365 13.0982L66.6031 13.3669L66.6013 13.366L66.7365 13.0982ZM66.6169 13.0378L66.7379 12.7633L66.7451 12.7665L66.7522 12.77L66.6169 13.0378ZM65.7843 11.0639L65.5031 10.9592L65.506 10.9519L65.7843 11.0639ZM66.0495 10.3769L65.7691 10.2701L65.7693 10.2697L66.0495 10.3769ZM66.1694 10.0634L65.8893 9.95615L65.8893 9.95596L66.1694 10.0634ZM66.9456 8.06307L67.225 8.17281L67.2218 8.18027L66.9456 8.06307ZM66.9764 7.98469L66.6972 7.87499L66.6978 7.87346L66.9764 7.98469ZM68.2905 6.83138L68.3131 7.13054L68.311 7.13068L68.2905 6.83138ZM71.886 9.943L71.5927 10.0062L71.5927 10.0061L71.886 9.943ZM69.2211 18.6208L69.4734 18.7831L69.4734 18.7831L69.2211 18.6208ZM62.4192 24.6065L62.4823 24.8998L62.4822 24.8998L62.4192 24.6065ZM58.0947 22.605L58.3759 22.5004L58.376 22.501L58.0947 22.605ZM68.5181 13.6799C68.6509 14.1616 68.6006 14.7039 68.3984 15.3097C68.1964 15.915 67.8362 16.6038 67.3225 17.3925L66.8198 17.0651C67.3194 16.2978 67.6499 15.6573 67.8293 15.1197C68.0085 14.5826 68.0304 14.1683 67.9397 13.8394L68.5181 13.6799ZM67.3225 17.3926C66.8063 18.1848 66.3228 18.7958 65.8552 19.2283C65.3877 19.6606 64.9191 19.9303 64.4339 20.0076L64.3394 19.4151C64.6667 19.3629 65.0309 19.1733 65.4478 18.7878C65.8645 18.4024 66.317 17.8368 66.8198 17.065L67.3225 17.3926ZM64.4331 20.0078C63.5734 20.1427 62.9608 19.6268 62.5921 19.326L62.9715 18.8611C63.3643 19.1817 63.7778 19.5032 64.3401 19.415L64.4331 20.0078ZM62.5888 19.3232L62.486 19.2368L62.8721 18.7775L62.9748 18.8639L62.5888 19.3232ZM62.4709 19.2232C62.2151 18.9767 61.8215 18.9794 61.5701 19.2275L61.1486 18.8004C61.6323 18.3231 62.3976 18.3194 62.8872 18.7911L62.4709 19.2232ZM61.5726 19.225L61.0391 19.764L60.6127 19.342L61.1461 18.8029L61.5726 19.225ZM61.0384 19.7648C60.4015 20.4041 59.5121 21.3039 59.3179 21.5068L58.8844 21.0919C59.0837 20.8838 59.9778 19.9792 60.6134 19.3413L61.0384 19.7648ZM59.3187 21.5059L59.2587 21.5691L58.8236 21.156L58.8836 21.0928L59.3187 21.5059ZM59.2602 21.5675C59.1007 21.738 59.003 21.8566 58.9525 21.9683C58.9111 22.06 58.8984 22.154 58.9476 22.2943L58.3813 22.4927C58.2817 22.2083 58.3002 21.9548 58.4058 21.7212C58.5023 21.5076 58.6673 21.3231 58.8221 21.1576L59.2602 21.5675ZM58.9432 22.2826C58.971 22.3524 59.0657 22.5085 59.2417 22.7034C59.4127 22.8927 59.6463 23.1028 59.9342 23.2866C60.5078 23.6529 61.2875 23.9105 62.2261 23.7086L62.3522 24.2952C61.2273 24.5372 60.2877 24.2243 59.6113 23.7923C59.2741 23.577 59.0001 23.331 58.7965 23.1056C58.5978 22.8857 58.4509 22.6683 58.3857 22.5044L58.9432 22.2826ZM62.226 23.7086C63.1555 23.5085 64.1939 22.9143 65.2669 21.9562C66.3368 21.0007 67.4245 19.698 68.4533 18.1095L68.9569 18.4356C67.9063 20.0579 66.7851 21.4047 65.6665 22.4037C64.5509 23.3999 63.4211 24.0651 62.3523 24.2952L62.226 23.7086ZM68.4533 18.1095C69.4777 16.5279 70.2169 15.0059 70.6464 13.6388C71.0771 12.2681 71.1903 11.0737 70.9884 10.1361L71.575 10.0099C71.8066 11.0858 71.667 12.3924 71.2188 13.8187C70.7695 15.2486 70.0036 16.8196 68.9569 18.4356L68.4533 18.1095ZM70.9884 10.1362C70.7898 9.21404 70.2502 8.61456 69.6916 8.24118C69.121 7.85972 68.5559 7.73087 68.3564 7.73087V7.13087C68.6984 7.13087 69.3776 7.30953 70.0251 7.74237C70.6846 8.18329 71.3369 8.90488 71.575 10.0098L70.9884 10.1362ZM68.3564 7.73087C68.3506 7.73087 68.3488 7.73088 68.3476 7.7309C68.3467 7.73092 68.3491 7.7309 68.3532 7.73054L68.3012 7.13279C68.3258 7.13066 68.3488 7.13087 68.3564 7.13087V7.73087ZM68.3667 7.72906C68.338 7.73287 68.3088 7.73906 68.2767 7.74855L68.1066 7.17317C68.1665 7.15546 68.2261 7.14246 68.2878 7.13428L68.3667 7.72906ZM68.2548 7.75414C68.0814 7.79145 67.9963 7.89549 67.8036 8.33283L67.2545 8.09091C67.4297 7.69326 67.6181 7.27743 68.1285 7.16757L68.2548 7.75414ZM67.8069 8.32493L67.7737 8.40651L67.218 8.18039L67.2512 8.09881L67.8069 8.32493ZM67.7736 8.4069C67.6868 8.6192 67.3636 9.46357 67.0754 10.2163L66.5151 10.0017C66.8011 9.2548 67.1281 8.40039 67.2181 8.18L67.7736 8.4069ZM67.0753 10.2164L66.8854 10.7119L66.3251 10.4971L66.5151 10.0016L67.0753 10.2164ZM66.8858 10.7108C66.8388 10.8347 66.7947 10.9477 66.7569 11.0448L66.1977 10.8271C66.2359 10.7292 66.2789 10.619 66.3247 10.4981L66.8858 10.7108ZM66.757 11.0445C66.692 11.212 66.6477 11.3256 66.6295 11.3834L66.0571 11.2035C66.0829 11.1214 66.1378 10.9815 66.1976 10.8275L66.757 11.0445ZM66.6252 11.3963C66.5061 11.7226 66.6632 12.0815 66.988 12.2155L66.7592 12.7701C66.1379 12.5138 65.8318 11.8201 66.0615 11.1907L66.6252 11.3963ZM67.0033 12.2223L67.1209 12.2787L66.8614 12.8197L66.7439 12.7633L67.0033 12.2223ZM67.1175 12.2771C67.4927 12.4513 68.2781 12.8024 68.5182 13.6805L67.9395 13.8388C67.7813 13.2606 67.2662 13.0077 66.8648 12.8213L67.1175 12.2771ZM58.3896 20.7226L58.4479 20.6626L58.8779 21.0811L58.8195 21.1411L58.3896 20.7226ZM58.4447 20.666C58.649 20.4495 59.5693 19.5221 60.1936 18.9002L60.617 19.3252C59.9904 19.9494 59.0776 20.8695 58.8811 21.0777L58.4447 20.666ZM60.192 18.9018L60.4367 18.6542L60.8634 19.0761L60.6186 19.3236L60.192 18.9018ZM60.437 18.654C60.5723 18.5174 60.6718 18.4167 60.7193 18.3669L61.1534 18.7811C61.1009 18.8361 60.9965 18.9418 60.8631 19.0763L60.437 18.654ZM60.7251 18.361C61.4236 17.6683 62.5443 17.6398 63.2754 18.296L62.8746 18.7425C62.3805 18.299 61.6208 18.3177 61.1476 18.787L60.7251 18.361ZM63.2639 18.2861L63.3754 18.3765L62.9978 18.8427L62.8862 18.7524L63.2639 18.2861ZM63.3768 18.3776C63.732 18.6688 63.9677 18.839 64.249 18.7944L64.3429 19.387C63.7508 19.4808 63.3018 19.0919 62.9964 18.8417L63.3768 18.3776ZM64.2506 18.7941C64.4679 18.761 64.7573 18.603 65.1184 18.2506C65.4741 17.9034 65.8713 17.3954 66.3063 16.72L66.8108 17.0449C66.3628 17.7403 65.9378 18.2893 65.5375 18.68C65.1426 19.0653 64.7421 19.3261 64.3412 19.3873L64.2506 18.7941ZM66.3063 16.72C66.7417 16.0441 67.0405 15.4725 67.2102 15.0057C67.3826 14.5315 67.4075 14.2042 67.3489 13.9947L67.9268 13.8333C68.0354 14.222 67.9623 14.6932 67.7741 15.2107C67.5832 15.7357 67.2588 16.3492 66.8108 17.0449L66.3063 16.72ZM67.3486 13.9935C67.2731 13.7188 67.0218 13.5748 66.6031 13.3669L66.8699 12.8295C67.2294 13.008 67.7683 13.2566 67.9271 13.8345L67.3486 13.9935ZM66.6013 13.366L66.4817 13.3056L66.7522 12.77L66.8717 12.8304L66.6013 13.366ZM66.496 13.3124C65.5949 12.9155 65.1596 11.8824 65.5032 10.9593L66.0655 11.1686C65.8325 11.7946 66.1282 12.4947 66.7379 12.7633L66.496 13.3124ZM65.506 10.9519C65.5444 10.8566 65.6437 10.5994 65.7691 10.2701L66.3298 10.4836C66.2049 10.8118 66.1035 11.0745 66.0626 11.1759L65.506 10.9519ZM65.7693 10.2697L65.8893 9.95615L66.4496 10.1706L66.3297 10.4841L65.7693 10.2697ZM65.8893 9.95596C66.1894 9.17327 66.568 8.18502 66.6695 7.94587L67.2218 8.18027C67.1258 8.4066 66.7533 9.37866 66.4496 10.1708L65.8893 9.95596ZM66.6664 7.95337L66.6972 7.87499L67.2557 8.09439L67.2249 8.17277L66.6664 7.95337ZM66.6978 7.87346C66.8567 7.47551 67.1894 6.60589 68.2701 6.53208L68.311 7.13068C67.6353 7.17683 67.4225 7.67648 67.2551 8.09592L66.6978 7.87346ZM68.2679 6.53223C68.2979 6.52997 68.3287 6.52898 68.3601 6.52898V7.12898C68.3411 7.12898 68.3255 7.12959 68.3131 7.13053L68.2679 6.53223ZM68.3601 6.52898C68.7785 6.52898 69.5859 6.72305 70.3561 7.22621C71.1373 7.7365 71.8989 8.57708 72.1793 9.87988L71.5927 10.0061C71.3516 8.88592 70.703 8.16949 70.028 7.72853C69.342 7.28042 68.6471 7.12898 68.3601 7.12898V6.52898ZM72.1793 9.8798C72.4264 11.0267 72.2874 12.4121 71.8241 13.9206C71.3598 15.4323 70.5639 17.0871 69.4734 18.7831L68.9687 18.4586C70.0365 16.7978 70.8057 15.1928 71.2505 13.7444C71.6964 12.2927 71.8107 11.0176 71.5927 10.0062L72.1793 9.8798ZM69.4734 18.7831C67.3169 22.1369 64.7807 24.4049 62.4823 24.8998L62.356 24.3132C64.4142 23.87 66.8367 21.7743 68.9687 18.4586L69.4734 18.7831ZM62.4822 24.8998C62.1673 24.9674 61.8646 24.9981 61.5742 24.9981V24.3981C61.822 24.3981 62.0824 24.372 62.3562 24.3132L62.4822 24.8998ZM61.5742 24.9981C60.4879 24.9981 59.6022 24.5688 58.9683 24.0791C58.6512 23.8342 58.3938 23.5719 58.2019 23.3348C58.0139 23.1025 57.8762 22.8792 57.8133 22.7091L58.376 22.501C58.4069 22.5844 58.5 22.7495 58.6682 22.9572C58.8325 23.1601 59.0567 23.3893 59.335 23.6043C59.8919 24.0344 60.6522 24.3981 61.5742 24.3981V24.9981ZM57.8135 22.7096C57.4356 21.6937 58.0903 21.0328 58.3886 20.7236L58.8205 21.1401C58.5069 21.4652 58.1394 21.8648 58.3759 22.5004L57.8135 22.7096Z" fill="black" mask="url(#path-3-outside-1_104:1056)"/>
</svg>
